<?xml version="1.0" encoding="UTF-8"?>
<svg width="177px" height="75px" viewBox="0 0 177 75" version="1.1" xmlns="http://www.w3.org/2000/svg" xmlns:xlink="http://www.w3.org/1999/xlink">
    <!-- Generator: sketchtool 53.2 (72643) - https://sketchapp.com -->
    <title>B3684CA6-8DFC-4F8E-B171-123D1681183A</title>
    <desc>Created with sketchtool.</desc>
    <g id="Page-1" stroke="none" stroke-width="1" fill="none" fill-rule="evenodd">
        <g id="1440_-2" transform="translate(-632.000000, -30.000000)" fill="#FFFFFF" fill-rule="nonzero">
            <g id="logo_VL_EDA" transform="translate(632.000000, 30.000000)">
                <path d="M175.941013,51.013943 C174.405297,53.1937944 172.546284,55.1268264 170.428023,56.74644 C169.771734,57.3068127 168.913778,57.5724434 168.055664,57.4809425 C167.523783,57.4049595 166.865263,57.1685679 167.262063,56.0710353 L172.521777,41.119265 C171.533643,40.6770569 170.508028,40.3238838 169.457128,40.0639452 C167.814961,39.6716271 166.130482,39.4844627 164.442249,39.5067364 C162.290412,39.4861967 160.158525,39.9206298 158.186313,40.7815626 C156.334903,41.5913424 154.649049,42.7362345 153.213647,44.1585859 C151.814542,45.5293688 150.69363,47.1577009 149.912606,48.9539589 C149.383343,50.1566012 149.02254,51.4265159 148.840402,52.7277823 C147.499935,54.0901471 146.000461,55.2863254 144.374288,56.2905419 L144.847072,54.9650602 C146.383617,50.5918151 148.528027,44.5216159 149.709985,41.1530352 C148.716392,40.7099209 147.68509,40.3567352 146.628451,40.0977154 C144.989147,39.7054047 143.307461,39.5182355 141.622014,39.5405066 C139.469957,39.5176644 137.337592,39.9521949 135.366079,40.8153329 C133.512042,41.6248893 131.823377,42.7697464 130.38497,44.1923561 C128.990517,45.5652463 127.872736,47.1931937 127.092372,48.9877291 C126.463151,50.4014496 126.077791,51.9114874 125.952627,53.4538423 C123.476042,55.7275626 120.270393,57.0445425 116.910647,57.1685679 C114.656484,57.2276658 112.106831,56.459393 111.988636,53.7915447 C111.819784,50.2625554 114.133045,48.2363414 115.483855,47.231677 C116.744899,46.3582131 118.223946,45.8525309 119.755789,45.7711145 C120.270785,45.7120166 122.13659,45.5769356 122.415195,45.5769356 C123.259451,45.5769356 124.458294,42.7149084 123.816659,42.8246617 C123.175025,42.934415 122.719127,43.0441682 122.077492,43.1285938 C121.372295,43.2270273 120.661864,43.2834107 119.949968,43.2974449 C118.804963,43.4176776 117.70085,42.8339322 117.155481,41.8199973 C116.671809,40.4166335 116.719873,38.8845785 117.290562,37.5142927 C117.876414,35.8051214 119.081245,34.3773971 120.667585,33.5125201 C122.593677,32.5057948 124.879297,32.4558359 126.847538,33.3774392 C127.8592,34.1447074 128.603575,35.2110536 128.975062,36.4252027 C129.603426,36.3156401 130.196684,36.0580791 130.705787,35.673815 C131.299744,35.2692834 131.651585,34.5941293 131.642911,33.8755501 C131.609788,33.3805654 131.417262,32.9096167 131.094145,32.5331834 C130.659594,32.0079765 130.122366,31.5770444 129.515386,31.2667997 C128.735898,30.8696963 127.910876,30.5691726 127.058602,30.3718885 C126.02862,30.1166178 124.970637,29.9918155 123.909528,30.0004159 C122.294092,29.9915884 120.684555,30.1959741 119.122597,30.6082801 C117.710158,30.9720863 116.364909,31.5592074 115.13771,32.3474471 C114.033951,33.0651687 113.098045,34.0125932 112.393878,35.1250487 C111.705757,36.234177 111.351146,37.5178114 111.372329,38.8228892 C111.324021,40.3480801 111.921873,41.822783 113.018628,42.8837596 C111.628885,43.3457258 110.301736,43.9781067 109.06751,44.7664501 C108.040474,45.4505308 107.118938,46.2810511 106.332122,47.231677 C105.598488,48.1051904 105.016341,49.0954115 104.60984,50.1612447 C104.216044,51.1560185 104.009946,52.2151378 104.001976,53.2849912 C103.972083,54.3685391 104.282061,55.4342731 104.888444,56.3327546 C105.482733,57.1910368 106.257943,57.9086103 107.159492,58.4349516 C108.100794,59.0006705 109.12703,59.411165 110.198813,59.65068 C111.233463,59.8979222 112.292605,60.028191 113.35633,60.0390377 C115.657152,60.1443906 117.955299,59.7795598 120.110376,58.9668328 C122.237416,58.0654104 124.226888,56.8688851 126.020167,55.4125158 C126.096286,55.8132692 126.209336,56.2061168 126.357869,56.5860314 C126.630822,57.2527926 127.025961,57.8626804 127.522942,58.3842963 C128.02405,58.9032694 128.624011,59.3166392 129.287437,59.6000246 C129.997865,59.8992092 130.762362,60.0486598 131.533158,60.0390377 C132.906663,60.0392473 134.238699,59.5684158 135.306981,58.7051135 C136.446024,57.8106688 137.469757,56.778429 138.354744,55.6320223 L138.354744,55.6320223 C138.354744,55.6320223 137.898846,57.5231553 136.927952,60.2501016 C134.11658,61.541813 131.955285,62.3607411 131.786434,62.4367242 C130.681211,62.9084107 129.604372,63.4440113 128.561377,64.0408102 C127.067044,64.885066 123.048387,67.1814418 123.048387,70.7948567 C123.009693,72.3023169 123.906931,73.6767386 125.30255,74.2478629 L125.30255,74.2478629 C126.002618,74.5659376 126.744668,74.7820135 127.506057,74.8894973 C128.006931,74.9583655 128.511707,74.9950252 129.017275,74.9992506 C130.653174,75.0191475 132.269559,74.6425705 133.728223,73.901718 C135.140269,73.1502629 136.402267,72.1458157 137.451391,70.9383802 C138.601927,69.6393928 139.580832,68.1979906 140.364073,66.6495606 C141.206305,64.983278 141.936791,63.2628284 142.550696,61.4996002 L142.989709,60.2247739 C143.141675,59.7942035 143.276756,59.4733863 143.45405,58.9415051 C145.365922,57.8343923 147.142379,56.5084245 148.747533,54.9903879 C148.799545,55.539071 148.93329,56.076896 149.144334,56.5860314 C149.411124,57.2540106 149.803786,57.8645009 150.300964,58.3842963 C150.805141,58.9034973 151.4079,59.3168177 152.073901,59.6000246 C152.784115,59.8999106 153.54876,60.0493902 154.319622,60.0390377 C155.7076,60.0489666 157.056127,59.5775789 158.135658,58.7051135 C159.272708,57.8084328 160.296182,56.776454 161.183422,55.6320223 C161.096206,56.3553954 161.189008,57.0891118 161.453583,57.7679895 C162.208356,59.2853661 163.807772,60.1935937 165.497569,60.0643653 C167.957765,60.0344218 170.328536,59.1375351 172.192517,57.5315979 C173.06162,56.8297313 173.859109,56.0435543 174.573319,55.1845667 C175.227536,54.4275698 175.836461,53.6325845 176.396911,52.8037654 C176.689337,52.1746021 176.498794,51.4265443 175.941013,51.013943 L175.941013,51.013943 Z M135.999271,62.6224604 C135.737551,63.2472097 135.391407,64.0492527 135.087474,64.6908872 C134.243219,66.5229223 133.508716,68.0679104 132.791099,69.2583111 C132.073481,70.4487118 130.570706,72.7535301 128.662688,72.7957429 C128.315232,72.8051221 127.968998,72.7507548 127.641138,72.6353343 L127.641138,72.6353343 C126.298772,72.1203383 126.298772,70.4571543 126.324099,70.1869925 C126.403241,69.1297748 126.872673,68.1397559 127.641138,67.4093909 C128.8555,66.1830389 130.286803,65.1925772 131.862417,64.4882658 C133.550929,63.64401 135.1719,62.9770479 136.024598,62.6140179 L136.024598,62.6140179 L135.999271,62.6224604 Z M139.654898,51.7146754 C138.658677,53.403187 135.872632,56.7802102 133.65224,56.8730784 C133.042248,56.9523167 132.437426,56.6935692 132.073481,56.1976737 C131.296766,54.9397326 131.668238,52.0777054 132.841754,49.6546912 C134.977721,45.2561184 137.451391,43.5676068 139.207443,42.6135977 C140.558065,41.9315616 142.042846,41.5567626 143.55536,41.5160652 L139.654898,51.7146754 Z M162.449805,51.7146754 C161.453583,53.403187 158.659097,56.7802102 156.447146,56.8730784 C155.837155,56.9523167 155.232333,56.6935692 154.868388,56.1976737 C154.08323,54.9397326 154.454703,52.0777054 155.636661,49.6546912 C157.772628,45.2561184 160.237855,43.5676068 162.00235,42.6135977 C163.352972,41.9315616 164.837753,41.5567626 166.350267,41.5160652 L162.449805,51.7146754 Z" id="eda"/>
                <g id="logo-vlru">
                    <path d="M80.257817,27.887324 L75.1095279,27.887324 L75.1095279,56.2098908 L72.5353833,56.2098908 C71.1630426,56.2098908 70.0445767,55.1379121 69.9686394,53.7880727 L69.9612388,53.7880727 L69.9612388,27.887324 L64.8129496,27.887324 L64.8129496,52.2723507 C64.8129496,56.5249711 68.2706693,59.9728855 72.5353833,59.9728855 L80.257817,59.9728855 L80.257817,51.0033667 L80.2574952,51.0033667 L80.257817,27.887324" id="Fill-1"/>
                    <polygon id="Fill-2" points="37.1278336 54.8560428 42.2761228 54.8560428 42.2761228 59.9807487 37.1278336 59.9807487"/>
                    <polyline id="Fill-3" points="26.8312554 54.8560428 26.8312554 27.9041711 21.6829664 27.9041711 21.6829664 59.9897327 33.2666168 59.9897327 33.2666168 54.8560428 26.8312554 54.8560428"/>
                    <polyline id="Fill-4" points="13.2864285 27.9041711 9.60508002 46.7897327 5.92373153 27.9041711 0.775442396 27.9041711 7.02997014 59.9897327 12.1801899 59.9897327 18.4347176 27.9041711 13.2864285 27.9041711"/>
                    <path d="M61.5876771,37.7650268 L61.5876771,35.6047059 C61.5876771,31.3517647 58.1302792,27.9041711 53.8652434,27.9041711 L46.1428097,27.9041711 L46.1428097,59.9897327 L51.2910988,59.9897327 L51.2910988,45.5040641 L53.8652434,45.5040641 C55.237906,45.5040641 56.3563717,46.5760428 56.432309,47.9255615 L56.4393879,47.9255615 L56.4393879,59.9897327 L61.5876771,59.9897327 L61.5876771,49.4416043 C61.5876771,47.1064171 60.5438614,45.0154011 58.897696,43.6033155 C60.5438614,42.1909091 61.5876771,40.1002139 61.5876771,37.7650268 L61.5876771,37.7650268 Z M55.9084706,40.6896257 C55.8946346,40.7075936 55.8251327,40.793262 55.803896,40.8170053 C55.333471,41.3586096 54.6410262,41.7025668 53.8652434,41.7025668 L51.2910988,41.7025668 L51.2910988,31.6671657 L53.8652434,31.6671657 C54.6616194,31.6671657 55.3695092,32.0294117 55.8402558,32.5960428 C55.8408994,32.5966845 55.8415429,32.5976471 55.8418646,32.5982888 C55.8888428,32.6547593 55.9329251,32.7128343 55.9747548,32.7731551 C56.5687387,33.6006417 56.9635482,35.0428877 56.9635482,36.6875936 C56.9635482,38.3929412 56.5391361,39.8794652 55.9084706,40.6896257 L55.9084706,40.6896257 Z" id="Fill-5"/>
                    <path d="M114.065153,0.0577540107 C107.728575,0.0577540107 101.82574,1.89304813 96.8470222,5.04898396 C93.8989831,6.91764705 91.2756081,9.24802139 89.0834022,11.9441711 C86.411762,9.95775401 83.3301891,8.49144385 79.9905583,7.68320856 C78.0766818,7.21989305 76.0794674,6.96834224 74.022726,6.96834224 C73.1780848,6.96834224 72.3434183,7.00973263 71.5200138,7.09090909 C74.5317631,7.38673797 77.3845588,8.21647059 79.9905583,9.47454545 C82.6683121,10.7675936 85.081251,12.5168984 87.1283394,14.6239572 C88.2188114,15.7463101 89.2040652,16.9697327 90.0709084,18.2785027 C90.6800154,17.0120856 91.3676338,15.7909091 92.1318329,14.6233155 C94.498437,11.006631 97.5735745,7.89368984 101.166759,5.48695187 C105.633865,2.4946524 110.893807,0.589090909 116.567544,0.153368984 C115.741887,0.0901604279 114.90722,0.0577540107 114.065153,0.0577540107" id="Fill-6"/>
                </g>
            </g>
        </g>
    </g>
</svg>