<?xml version="1.0" encoding="UTF-8"?>
<svg width="122px" height="140px" viewBox="0 0 122 140" version="1.1" xmlns="http://www.w3.org/2000/svg" xmlns:xlink="http://www.w3.org/1999/xlink">
    <!-- Generator: sketchtool 53.2 (72643) - https://sketchapp.com -->
    <title>6945212F-B871-4452-A866-9D3FBFCE6DE0</title>
    <desc>Created with sketchtool.</desc>
    <g id="Page-1" stroke="none" stroke-width="1" fill="none" fill-rule="evenodd">
        <g id="1440_-3" transform="translate(-663.000000, -271.000000)" fill-rule="nonzero">
            <g id="cotton-candy" transform="translate(663.000000, 271.000000)">
                <path d="M71.076075,79.1240625 C71.034075,79.1513625 70.991375,79.1786625 70.949375,79.2059625 L71.159375,79.2059625 C71.132075,79.1786625 71.104075,79.1513625 71.076075,79.1240625 Z" id="SVGCleanerId_0" fill="#F072AE"/>
                <path d="M61.8477344,137.949219 L75.1980469,81.2825781 C73.5883203,81.0137891 72.1459375,80.2511719 71.0314062,79.1560547 L70.949375,79.1560547 C67.3769141,81.4789063 63.1148437,82.8291406 58.5355859,82.8291406 C54.0810156,82.8291406 49.9261328,81.5516406 46.4146484,79.3439063 L60.1051172,137.949219 L61.8477344,137.949219 Z" id="Shape" fill="#FFB655"/>
                <path d="M107.103828,33.6762891 C107.330508,32.8469531 107.453828,31.9749609 107.453828,31.0737109 C107.453828,25.6323047 103.042734,21.2212109 97.6013281,21.2212109 C97.0848047,21.2212109 96.5778516,21.2614063 96.0826563,21.3379688 C92.2569922,10.1196484 81.62875,2.05078125 69.1154297,2.05078125 C56.8591406,2.05078125 46.4113672,9.79179688 42.3929297,20.6510938 C40.7162109,19.6828516 38.7723437,19.1261328 36.6969531,19.1261328 C30.3950391,19.1261328 25.2866797,24.2347656 25.2866797,30.5364063 C25.2866797,30.5541797 25.2880469,30.5716797 25.2880469,30.5897266 C12.4304687,31.4152344 2.25667969,42.1030859 2.25667969,55.1692969 L2.25667969,55.1692969 C2.25667969,66.3504297 9.70648437,75.7914063 19.9130859,78.8000391 C19.1731641,80.9618359 18.7714844,83.2803125 18.7714844,85.6928516 C18.7714844,97.4424609 28.2964062,106.967656 40.0462891,106.967656 C44.2096484,106.967656 48.0935547,105.771641 51.3734375,103.704727 C51.7059375,104.228086 52.0679688,104.730664 52.4573438,105.210273 L46.4149219,79.3439063 C49.9264063,81.5516406 54.0812891,82.8291406 58.5358594,82.8291406 C63.1151172,82.8291406 67.3771875,81.4789063 70.9496484,79.1560547 C70.9660547,79.1453906 70.9827344,79.1347266 70.9991406,79.1240625 C71.0098047,79.1347266 71.0207422,79.1453906 71.0316797,79.1560547 C72.1464844,80.2511719 73.5885938,81.0137891 75.1983203,81.2825781 L68.2508203,110.771445 C74.7474219,109.375 79.7775781,104.031211 80.7072656,97.3732813 C82.7419141,98.5660156 85.1109766,99.2498828 87.6397266,99.2498828 C95.2207813,99.2498828 101.366289,93.104375 101.366289,85.5233203 C101.366289,83.2939844 100.834727,81.1887891 99.8916406,79.3275 C111.184336,77.0836719 119.696445,67.1209766 119.696445,55.1690234 L119.696445,55.1690234 C119.696445,45.9385938 114.618164,37.8948828 107.103828,33.6762891 Z" id="Shape" fill="#F072AE"/>
                <path d="M71.076075,79.1240625 C71.034075,79.1513625 70.991375,79.1786625 70.949375,79.2059625 L71.159375,79.2059625 C71.132075,79.1786625 71.104075,79.1513625 71.076075,79.1240625 Z" id="SVGCleanerId_0_1_" fill="#F072AE"/>
                <path d="M79.2792,79.1240625 C79.2372,79.1513625 79.1945,79.1786625 79.1525,79.2059625 L79.3625,79.2059625 C79.3352,79.1786625 79.3072,79.1513625 79.2792,79.1240625 Z" id="Shape" fill="#F072AE"/>
                <g id="Group" transform="translate(46.210938, 79.023438)" fill="#FF7956">
                    <path d="M20.5277734,3.80570312 C23.4675,3.80570312 26.2765234,3.24925781 28.8564062,2.23617187 C27.2994531,1.94878906 25.9049219,1.19792969 24.8204687,0.132617188 L24.7384375,0.132617188 C22.2583594,1.74507813 19.4457812,2.88886719 16.4256641,3.43738281 C17.7562109,3.679375 19.1272266,3.80570312 20.5277734,3.80570312 Z" id="Shape"/>
                    <path d="M9.17054688,3.58914062 C5.910625,3.13796875 2.87164063,1.99773437 0.203984375,0.32046875 L13.8941797,58.9257812 L15.6367969,58.9257812 L18.8808594,45.1565625 L9.17054688,3.58914062 Z" id="Shape"/>
                </g>
                <g id="Group" transform="translate(2.187500, 1.914062)" fill="#FF3F62">
                    <path d="M42.7125781,17.2120703 C44.7876953,17.2120703 46.7318359,17.7687891 48.4085547,18.7370313 C51.9703516,9.11175781 60.5830859,1.93648438 71.0294922,0.42984375 C69.6901953,0.236796875 68.3208203,0.13671875 66.9282031,0.13671875 C55.1884375,0.13671875 45.1081641,7.23898438 40.7476562,17.3810547 C41.3858594,17.2700391 42.0423828,17.2120703 42.7125781,17.2120703 Z" id="Shape"/>
                    <path d="M86.7228906,95.4592187 C86.6351172,96.0875781 86.5107031,96.7041797 86.3523828,97.3068359 C87.460625,97.2351953 88.5327734,97.0317578 89.5537891,96.7126562 C88.5565625,96.4009375 87.6080078,95.9782031 86.7228906,95.4592187 Z" id="Shape"/>
                    <path d="M52.4302734,77.4298437 L53.1937109,80.6985156 C54.2245703,80.84125 55.2775781,80.9150781 56.3478125,80.9150781 C57.7480859,80.9150781 59.1185547,80.7884766 60.4488281,80.5470313 C57.5476562,80.0198437 54.8376172,78.9433203 52.4302734,77.4298437 Z" id="Shape"/>
                    <path d="M81.2139453,79.3685156 C79.6042188,79.0997266 78.1618359,78.3371094 77.0473047,77.2419922 C77.0363672,77.2313281 77.0254297,77.2206641 77.0147656,77.21 C76.9983594,77.2206641 76.9816797,77.2313281 76.9652734,77.2419922 C75.6861328,78.0735156 74.3186719,78.780625 72.8801172,79.3455469 C72.9235938,79.3534766 72.9673438,79.3614063 73.0110938,79.3685156 L66.0635937,108.857383 C70.0691797,107.996602 73.5172266,105.634922 75.7903125,102.390039 L81.2139453,79.3685156 Z" id="Shape"/>
                    <path d="M24.7871094,83.7787891 C24.7871094,81.36625 25.1887891,79.0477734 25.9287109,76.8859766 C15.7221094,73.8773438 8.27230469,64.4363672 8.27230469,53.2552344 L8.27230469,53.2552344 C8.27230469,40.1890234 18.4458203,29.5011719 31.3036719,28.6756641 C31.3036719,28.6578906 31.3023047,28.6403906 31.3023047,28.6223437 C31.3023047,23.7677344 34.3341797,19.6213281 38.6077344,17.9727734 C37.3359766,17.4819531 35.9545703,17.2117969 34.5094531,17.2117969 C28.2075391,17.2117969 23.0991797,22.3204297 23.0991797,28.6220703 C23.0991797,28.6398438 23.1005469,28.6573438 23.1005469,28.6753906 C10.2429687,29.5008984 0.0691796875,40.18875 0.0691796875,53.2549609 L0.0691796875,53.2549609 C0.0691796875,64.4360937 7.51898438,73.8770703 17.7255859,76.8857031 C16.9856641,79.0475 16.5839844,81.3659766 16.5839844,83.7785156 C16.5839844,95.528125 26.1089062,105.05332 37.8587891,105.05332 C39.2617969,105.05332 40.6328125,104.917422 41.9600781,104.658203 C32.1729297,102.746602 24.7871094,94.1251172 24.7871094,83.7787891 Z" id="Shape"/>
                </g>
                <rect id="Rectangle-path" fill="#000000" x="76.0511719" y="48.9589844" width="4.1015625" height="4.1015625"/>
                <rect id="Rectangle-path" fill="#000000" x="69.2152344" y="48.9589844" width="4.1015625" height="4.1015625"/>
                <rect id="Rectangle-path" fill="#000000" x="62.3792969" y="48.9589844" width="4.1015625" height="4.1015625"/>
                <rect id="Rectangle-path" fill="#000000" x="82.8871094" y="48.9589844" width="4.1015625" height="4.1015625"/>
                <path d="M82.8994141,81.0638281 L80.2260156,77.9534766 C79.1866797,78.8467969 77.8599609,79.3384375 76.4900391,79.3384375 C74.9639844,79.3384375 73.5273438,78.7458984 72.4448047,77.669375 L71.2668359,76.4985156 L69.8766797,77.4074219 C66.5041016,79.6124219 62.5824609,80.7780859 58.5355859,80.7780859 C51.9003516,80.7780859 45.609375,77.5619141 41.706875,72.1749219 L38.3854297,74.5814453 C40.1089062,76.9603516 42.2217578,78.9857031 44.6009375,80.5943359 L58.4784375,140 L63.4716797,140 L76.7979297,83.4350781 C79.0384766,83.3648047 81.1945312,82.5291797 82.8994141,81.0638281 Z M60.9814844,132.68418 L49.4096094,83.1487891 C52.1803516,84.2422656 55.1386719,84.8309766 58.1527734,84.8769141 C58.16125,84.8769141 58.1697266,84.8771875 58.1779297,84.8771875 C58.2252344,84.8780078 58.2728125,84.8782813 58.3203906,84.8788281 C58.3351562,84.8788281 58.3499219,84.8791016 58.3644141,84.8791016 C58.4215625,84.879375 58.4787109,84.8796484 58.5358594,84.8796484 C62.8676562,84.8796484 67.0810547,83.7634766 70.8129297,81.6394141 C71.4210547,82.070625 72.0721094,82.4285547 72.7554297,82.7085547 L60.9814844,132.68418 Z" id="Shape" fill="#000000"/>
                <path d="M55.6333203,76.5567578 L56.4355859,72.5342188 C55.2830469,72.3045313 54.1687891,71.9129688 53.1245312,71.3701953 L51.2337109,75.0099219 C52.6214062,75.7309766 54.1015234,76.2513281 55.6333203,76.5567578 Z" id="Shape" fill="#000000"/>
                <path d="M58.9110156,72.7773047 L58.7704687,72.7764844 L58.7297266,76.8780469 L58.9110156,76.8788672 C60.4173828,76.8788672 61.910625,76.6778906 63.3497266,76.2808594 L62.2595312,72.3266797 C61.175625,72.6258203 60.0487891,72.7773047 58.9110156,72.7773047 Z" id="Shape" fill="#000000"/>
                <path d="M45.3892578,69.9688281 C46.3044531,71.2321094 47.3908203,72.3611328 48.6177344,73.3244531 L51.1508594,70.0987109 C50.2233594,69.3705469 49.4025,68.5171484 48.7107031,67.5623047 L45.3892578,69.9688281 Z" id="Shape" fill="#000000"/>
                <g id="Group" transform="translate(97.890625, 54.960938)" fill="#FFFFFF">
                    <path d="M0.233515625,15.4732813 L1.03304687,19.4963672 C4.90984375,18.7258203 8.42707031,16.8188672 11.2049219,13.9816797 L8.27421875,11.1122266 C6.076875,13.3566016 3.2965625,14.8646094 0.233515625,15.4732813 Z" id="Shape"/>
                    <path d="M9.82679688,9.26078125 L13.1624609,11.6476172 C14.0511328,10.4053906 14.7946094,9.06117187 15.3726563,7.65214844 L11.5778906,6.09546875 C11.1204297,7.21136719 10.5311719,8.27667969 9.82679688,9.26078125 Z" id="Shape"/>
                    <path d="M16.8399219,0.208359375 L12.7383594,0.208359375 C12.7383594,1.41832031 12.5967188,2.62636719 12.3178125,3.79859375 L16.3080859,4.74824219 C16.6608203,3.26511719 16.8399219,1.73769531 16.8399219,0.208359375 Z" id="Shape"/>
                </g>
                <path d="M11.3241406,55.1692969 L7.22257813,55.1692969 C7.22257813,63.9510156 13.1189844,71.7387891 21.5619141,74.1073047 L27.0295703,75.6412891 L28.1375391,71.6925781 L22.6698828,70.1585937 C15.9898047,68.2841797 11.3241406,62.1203516 11.3241406,55.1692969 Z" id="Shape" fill="#000000"/>
                <g id="Group" transform="translate(59.609375, 6.835938)" fill="#FFFFFF">
                    <path d="M29.7907422,22.9996484 L33.6727344,21.6756641 L31.7728906,16.1046484 C30.2216797,11.5557422 27.3585156,7.64175781 23.4934766,4.78570313 L21.0560547,8.08445312 C24.2467969,10.4420312 26.6103906,13.6729687 27.8908984,17.4283594 L29.7907422,22.9996484 Z" id="Shape"/>
                    <path d="M9.50605469,0.180742188 L9.50605469,4.28230469 C10.7444531,4.28230469 11.9855859,4.40070312 13.195,4.63421875 L13.9726563,0.60703125 C12.5075781,0.324296875 11.0050391,0.180742188 9.50605469,0.180742188 Z" id="Shape"/>
                    <path d="M16.8705469,1.36035156 L15.5875781,5.25628906 C16.7598047,5.64210937 17.9008594,6.14332031 18.9790234,6.74515625 L20.9786719,3.16421875 C19.6727344,2.43496094 18.2907812,1.82820312 16.8705469,1.36035156 Z" id="Shape"/>
                    <polygon id="Rectangle-path" transform="translate(2.595259, 106.583443) rotate(9.950231) translate(-2.595259, -106.583443) " points="0.544253865 104.532438 4.6462638 104.532438 4.6462638 108.634448 0.544253865 108.634448"/>
                    <polygon id="Rectangle-path" transform="translate(3.776611, 99.849466) rotate(9.950231) translate(-3.776611, -99.849466) " points="1.7256058 97.7984613 5.82761574 97.7984613 5.82761574 101.900471 1.7256058 101.900471"/>
                    <polygon id="Rectangle-path" transform="translate(5.833888, 88.108261) rotate(9.950231) translate(-5.833888, -88.108261) " points="3.78288256 80.9737011 7.88489249 80.9737011 7.88489249 95.2428219 3.78288256 95.2428219"/>
                </g>
                <path d="M32.7641016,44.2692578 C32.7641016,49.3584766 34.6620313,54.2212891 38.1087109,57.9619141 L41.125,55.1826953 C38.3783203,52.2016797 36.8656641,48.3259766 36.8656641,44.2692578 C36.8656641,35.3855469 44.0931641,28.1580469 52.976875,28.1580469 C56.8566797,28.1580469 60.6049609,29.5566797 63.5315625,32.0960937 L66.2197266,28.9985937 C62.5474609,25.8116797 57.8443359,24.0564844 52.976875,24.0564844 C41.8312891,24.0567578 32.7641016,33.1242187 32.7641016,44.2692578 Z" id="Shape" fill="#000000"/>
                <path d="M121.747227,55.1692969 C121.747227,46.0351172 117.051758,37.5440625 109.397969,32.6612891 C109.468789,32.1351953 109.504609,31.605 109.504609,31.0739844 C109.504609,24.5103906 104.164922,19.1707031 97.6013281,19.1707031 C97.5562109,19.1707031 97.5113672,19.1709766 97.46625,19.1715234 C92.8484375,7.63984375 81.6511719,0 69.1154297,0 C57.1372266,0 46.230625,7.105 41.3133984,17.8926563 C39.8401172,17.3545313 38.2763281,17.075625 36.6969531,17.075625 C29.8905469,17.075625 24.2478906,22.1536328 23.358125,28.7199609 C10.2377734,30.4579297 0.205898437,41.7443359 0.205898437,55.1692969 C0.205898437,61.0460156 2.07949219,66.6203125 5.62378906,71.2892578 C8.63734375,75.2592969 12.7632422,78.3401172 17.3930859,80.1111719 C16.9462891,81.9292578 16.7207031,83.7990234 16.7207031,85.6928516 C16.7207031,98.5545313 27.1846094,109.018438 40.0462891,109.018438 C42.6505078,109.018438 45.2087891,108.591602 47.6500391,107.750234 L46.3134766,103.872344 C44.3031641,104.565234 42.1946875,104.916602 40.0462891,104.916602 C29.4462109,104.916602 20.8222656,96.2929297 20.8222656,85.6925781 C20.8222656,83.558125 21.1692578,81.4625 21.853125,79.4639453 L22.5465625,77.4383203 L20.4927734,76.8326563 C10.9629297,74.0239063 4.30746094,65.1150391 4.30746094,55.1690234 C4.30746094,43.2936328 13.5810937,33.3960156 25.4192969,32.6361328 L27.3530469,32.5119922 L27.3385547,30.5744141 L27.3371875,30.5109766 C27.3511328,25.361875 31.5442969,21.1769141 36.6966797,21.1769141 C38.3359375,21.1769141 39.9508594,21.6092188 41.3672656,22.4270703 L43.4724609,23.6425 L44.3160156,21.3625781 C48.1367578,11.0383984 58.1030078,4.1015625 69.1154297,4.1015625 C80.4335547,4.1015625 90.4908594,11.2943359 94.1415234,21.9999609 L94.6966016,23.6277344 L96.3962891,23.3646875 C96.7930469,23.3031641 97.1985547,23.2719922 97.6013281,23.2719922 C101.90332,23.2719922 105.403047,26.7719922 105.403047,31.0737109 C105.403047,31.7679688 105.309805,32.4616797 105.125508,33.1357031 L104.703594,34.6803516 L106.100039,35.4642969 C113.221719,39.4622266 117.645664,47.0126562 117.645664,55.1690234 C117.645664,65.9115625 110.011016,75.2259375 99.491875,77.3160938 L96.8403516,77.8432813 L98.0623437,80.2544531 C98.8941406,81.8958984 99.3155078,83.6683203 99.3155078,85.5233203 C99.3155078,91.9614063 94.0778125,97.1991016 87.6397266,97.1991016 C85.5626953,97.1991016 83.5242187,96.6473047 81.7444141,95.6041406 L79.1,94.05375 L78.6761719,97.0897266 C78.1662109,100.740664 76.2608984,103.988281 73.3107812,106.235391 L75.7960547,109.498594 C78.8785156,107.150312 81.0799609,103.955469 82.1603125,100.321211 C83.9048437,100.965977 85.7612109,101.300664 87.6397266,101.300664 C96.3394141,101.300664 103.41707,94.2230078 103.41707,85.5233203 C103.41707,83.8780469 103.170977,82.2800781 102.683164,80.7474609 C113.864023,77.4227344 121.747227,67.0326563 121.747227,55.1692969 Z" id="Shape" fill="#000000"/>
            </g>
        </g>
    </g>
</svg>